<svg xmlns="http://www.w3.org/2000/svg" xmlns:xl="http://www.w3.org/1999/xlink" width="1577.027" height="1585.688" version="1.1" viewBox="-311.5 -115.688 1577.027 1585.688"><title>Data and control flow in an execution chain</title><desc>Details the flow of data (Subscriber methods) and control (Publisher and Subscription methods).</desc><defs><marker id="FilledDiamond_Marker" stroke-linejoin="miter" stroke-miterlimit="10" color="#000" markerHeight="6" markerUnits="strokeWidth" markerWidth="6" orient="auto" overflow="visible" viewBox="-1 -3 6 6"><g><path fill="currentColor" stroke="currentColor" stroke-width="1" d="M 3.7333333 0 L 1.8666667 -1.4 L 0 0 L 1.8666667 1.4 Z"/></g></marker><marker id="FilledDiamond_Marker_2" stroke-linejoin="miter" stroke-miterlimit="10" color="#000" markerHeight="6" markerUnits="strokeWidth" markerWidth="6" orient="auto" overflow="visible" viewBox="-5 -3 6 6"><g><path fill="currentColor" stroke="currentColor" stroke-width="1" d="M -3.7333333 0 L -1.8666667 1.4 L 0 0 L -1.8666667 -1.4 Z"/></g></marker><filter id="Shadow" x="-469.203" y="-274.257" filterUnits="userSpaceOnUse"><feGaussianBlur in="SourceAlpha" result="blur" stdDeviation="1.303"/><feOffset dx="0" dy="2" in="blur" result="offset"/><feFlood flood-color="#000" flood-opacity=".2" result="flood"/><feComposite in="flood" in2="offset" operator="in" result="color"/><feMerge><feMergeNode in="color"/><feMergeNode in="SourceGraphic"/></feMerge></filter><linearGradient id="Gradient" x1="0" x2="1" gradientUnits="userSpaceOnUse"><stop offset="0" stop-color="#fffd78"/><stop offset=".452" stop-color="#ffe979"/><stop offset="1" stop-color="#ffd579"/></linearGradient><linearGradient id="Obj_Gradient" gradientTransform="translate(543.875 -40.31335) scale(18.5)" xl:href="#Gradient"/><linearGradient id="Obj_Gradient_2" gradientTransform="translate(581.875 -40.31335) scale(18.5)" xl:href="#Gradient"/><linearGradient id="Obj_Gradient_3" gradientTransform="translate(657.875 -40.31335) scale(18.5)" xl:href="#Gradient"/><linearGradient id="Obj_Gradient_4" gradientTransform="translate(638.375 1171.5) rotate(180) scale(40)" xl:href="#Gradient"/><linearGradient id="Obj_Gradient_5" gradientTransform="translate(548.621 1318.875) scale(18.5)" xl:href="#Gradient"/><linearGradient id="Obj_Gradient_6" gradientTransform="translate(586.621 1318.875) scale(18.5)" xl:href="#Gradient"/><linearGradient id="Obj_Gradient_7" gradientTransform="translate(662.621 1318.875) scale(18.5)" xl:href="#Gradient"/><marker id="FilledArrow_Marker" stroke-linejoin="miter" stroke-miterlimit="10" color="#000" markerHeight="8" markerUnits="strokeWidth" markerWidth="10" orient="auto" overflow="visible" viewBox="-1 -4 10 8"><g><path fill="currentColor" stroke="currentColor" stroke-width="1" d="M 8 0 L 0 -3 L 0 3 Z"/></g></marker><linearGradient id="Obj_Gradient_8" gradientTransform="translate(629.75 151.25) rotate(180) scale(40)" xl:href="#Gradient"/></defs><metadata>Produced by OmniGraffle 7.19.5\n2022-03-16 16:56:07 +0000</metadata><g id="Read_Write" fill="none" fill-opacity="1" stroke="none" stroke-dasharray="none" stroke-opacity="1"><title>Read Write</title><g id="Read_Write_Layer_1"><title>Layer 1</title><g id="Line_79"><path stroke="#000" stroke-linecap="round" stroke-linejoin="round" stroke-width="3" marker-end="url(#FilledDiamond_Marker)" marker-start="url(#FilledDiamond_Marker_2)" d="M 22.947346 275.2721 L 150.26809 277.75594 L 1230.0772 275.03515"/></g><g id="Line_24"><path stroke="#000" stroke-linecap="round" stroke-linejoin="round" stroke-width="3" marker-end="url(#FilledDiamond_Marker)" marker-start="url(#FilledDiamond_Marker_2)" d="M 22.947346 1042.9008 L 150.26809 1045.3847 L 1230.0772 1042.6639"/></g><g id="Graphic_2" filter="url(#Shadow)"><rect width="390" height="120" x="43.223" y="985.163" fill="#fff"/><rect width="390" height="120" x="43.223" y="985.163" stroke="#000" stroke-linecap="round" stroke-linejoin="round" stroke-width="1"/><text fill="#000" transform="translate(48.22302 1034.1631)"><tspan x="134.998" y="18" fill="#000" font-family="Helvetica" font-size="18">Subscription</tspan></text></g><g id="Graphic_3" filter="url(#Shadow)"><rect width="390" height="120" x="408.857" y="216.613" fill="#fff"/><rect width="390" height="120" x="408.857" y="216.613" stroke="#000" stroke-linecap="round" stroke-linejoin="round" stroke-width="1"/><text fill="#000" transform="translate(413.85695 265.61303)"><tspan x="148.99" y="18" fill="#000" font-family="Helvetica" font-size="18">Publisher</tspan></text></g><g id="Group_75"><g id="Graphic_5" filter="url(#Shadow)"><path fill="#fff" d="M 447 44.81165 L 528.375 3.311652 L 691.125 3.311652 L 772.5 44.81165 L 691.125 86.31165 L 528.375 86.31165 Z"/><path stroke="#000" stroke-linecap="round" stroke-linejoin="round" stroke-width="1" d="M 447 44.81165 L 528.375 3.311652 L 691.125 3.311652 L 772.5 44.81165 L 691.125 86.31165 L 528.375 86.31165 Z"/><text fill="#000" transform="translate(452 33.31165)"><tspan x="74.351" y="19" fill="#000" font-family="Helvetica" font-size="19">Netty Event Loops</tspan></text></g><g id="Group_71"><g id="Graphic_6"><rect width="18.5" height="109.75" x="543.875" y="-95.188" fill="url(#Obj_Gradient)"/><rect width="18.5" height="109.75" x="543.875" y="-95.188" stroke="#ef8e00" stroke-linecap="round" stroke-linejoin="round" stroke-width="1"/><text fill="#000" transform="translate(546.125 -4.157098) rotate(-90)"><tspan x="9.47" y="11" fill="#000" font-family="Helvetica" font-size="12">Eventloop</tspan></text></g><g id="Graphic_7"><rect width="18.5" height="109.75" x="581.875" y="-95.188" fill="url(#Obj_Gradient_2)"/><rect width="18.5" height="109.75" x="581.875" y="-95.188" stroke="#ef8e00" stroke-linecap="round" stroke-linejoin="round" stroke-width="1"/><text fill="#000" transform="translate(584.125 -4.157098) rotate(-90)"><tspan x="9.47" y="11" fill="#000" font-family="Helvetica" font-size="12">Eventloop</tspan></text></g><g id="Graphic_9"><rect width="18.5" height="109.75" x="657.875" y="-95.188" fill="url(#Obj_Gradient_3)"/><rect width="18.5" height="109.75" x="657.875" y="-95.188" stroke="#ef8e00" stroke-linecap="round" stroke-linejoin="round" stroke-width="1"/><text fill="#000" transform="translate(660.125 -4.157098) rotate(-90)"><tspan x="9.47" y="11" fill="#000" font-family="Helvetica" font-size="12">Eventloop</tspan></text></g><g id="Graphic_25"><text fill="#000" transform="translate(621.125 -49.53735)"><tspan x="0" y="15" fill="#000" font-family="Helvetica Neue" font-size="16">…</tspan></text></g></g></g><g id="Group_93"><g id="Line_37"><line x1="618.071" x2="618.679" y1="469.869" y2="874.131" stroke="#000" stroke-dasharray="2 8" stroke-linecap="round" stroke-linejoin="round" stroke-width="2"/></g><g id="Graphic_31"><path fill="#fff" d="M 481.5 375.36876 L 754.5 375.36876 C 786.792 375.36876 813 396.53676 813 422.61876 C 813 448.70076 786.792 469.86876 754.5 469.86876 L 481.5 469.86876 C 449.208 469.86876 423 448.70076 423 422.61876 C 423 396.53676 449.208 375.36876 481.5 375.36876 Z"/><path stroke="#000" stroke-linecap="round" stroke-linejoin="round" stroke-width="1" d="M 481.5 375.36876 L 754.5 375.36876 C 786.792 375.36876 813 396.53676 813 422.61876 C 813 448.70076 786.792 469.86876 754.5 469.86876 L 481.5 469.86876 C 449.208 469.86876 423 448.70076 423 422.61876 C 423 396.53676 449.208 375.36876 481.5 375.36876 Z"/><text fill="#000" transform="translate(467 413.39476)"><tspan x="119.144" y="15" fill="#000" font-family="Helvetica Neue" font-size="16">Operator</tspan></text></g><g id="Graphic_33"><path fill="#fff" d="M 482.25 874.1312 L 755.25 874.1312 C 787.542 874.1312 813.75 895.2992 813.75 921.3812 C 813.75 947.4632 787.542 968.6312 755.25 968.6312 L 482.25 968.6312 C 449.958 968.6312 423.75 947.4632 423.75 921.3812 C 423.75 895.2992 449.958 874.1312 482.25 874.1312 Z"/><path stroke="#000" stroke-linecap="round" stroke-linejoin="round" stroke-width="1" d="M 482.25 874.1312 L 755.25 874.1312 C 787.542 874.1312 813.75 895.2992 813.75 921.3812 C 813.75 947.4632 787.542 968.6312 755.25 968.6312 L 482.25 968.6312 C 449.958 968.6312 423.75 947.4632 423.75 921.3812 C 423.75 895.2992 449.958 874.1312 482.25 874.1312 Z"/><text fill="#000" transform="translate(467.75 912.1572)"><tspan x="112.472" y="15" fill="#000" font-family="Helvetica Neue" font-size="16">Operator n</tspan></text></g></g><g id="Graphic_72"><path fill="url(#Obj_Gradient_4)" d="M 608.375 1103 L 628.375 1103 L 628.375 1220 L 638.375 1220 L 618.375 1240 L 598.375 1220 L 608.375 1220 Z"/><path stroke="#ef8e00" stroke-linecap="round" stroke-linejoin="round" stroke-width="1" d="M 608.375 1103 L 628.375 1103 L 628.375 1220 L 638.375 1220 L 618.375 1240 L 598.375 1220 L 608.375 1220 Z"/></g><g id="Graphic_78" filter="url(#Shadow)"><rect width="390" height="120" x="820.463" y="983.205" fill="#fff"/><rect width="390" height="120" x="820.463" y="983.205" stroke="#000" stroke-linecap="round" stroke-linejoin="round" stroke-width="1"/><text fill="#000" transform="translate(825.4632 1032.2047)"><tspan x="142.983" y="18" fill="#000" font-family="Helvetica" font-size="18">Subscriber</tspan></text></g><g id="Graphic_80"><text fill="#000" transform="translate(277 614.328)"><tspan x="1.752" y="15" fill="#000" font-family="Helvetica Neue" font-size="16">Any source created within</tspan> <tspan x="0" y="33.448" fill="#000" font-family="Helvetica Neue" font-size="16">these operators follow this</tspan> <tspan x="48.136" y="51.896" fill="#000" font-family="Helvetica Neue" font-size="16">same model.</tspan></text></g><g id="Graphic_81"><text fill="#000" transform="translate(-92 612.36365)"><tspan x="8.687" y="13" fill="#000" font-family="Courier New" font-size="16">onSubscribe(), onNext(), </tspan> <tspan x="0" y="33" fill="#000" font-family="Courier New" font-size="16">onError() </tspan> <tspan y="33" fill="#000" font-family="Helvetica Neue" font-size="16">and</tspan> <tspan y="33" fill="#000" font-family="Courier New" font-size="16"> onComplete()</tspan></text></g><g id="Graphic_82"><text fill="#000" transform="translate(964 623)"><tspan x="4.801" y="13" fill="#000" font-family="Courier New" font-size="16">subscribe(), request(n) </tspan> <tspan x="58.524" y="33" fill="#000" font-family="Helvetica Neue" font-size="16">and</tspan> <tspan y="33" fill="#000" font-family="Courier New" font-size="16"> cancel()</tspan></text></g><g id="Group_83"><g id="Graphic_89" filter="url(#Shadow)"><path fill="#fff" d="M 451.746 1404 L 533.121 1362.5 L 695.871 1362.5 L 777.246 1404 L 695.871 1445.5 L 533.121 1445.5 Z"/><path stroke="#000" stroke-linecap="round" stroke-linejoin="round" stroke-width="1" d="M 451.746 1404 L 533.121 1362.5 L 695.871 1362.5 L 777.246 1404 L 695.871 1445.5 L 533.121 1445.5 Z"/><text fill="#000" transform="translate(456.746 1392.5)"><tspan x="74.351" y="19" fill="#000" font-family="Helvetica" font-size="19">Netty Event Loops</tspan></text></g><g id="Group_84"><g id="Graphic_88"><rect width="18.5" height="109.75" x="548.621" y="1264" fill="url(#Obj_Gradient_5)"/><rect width="18.5" height="109.75" x="548.621" y="1264" stroke="#ef8e00" stroke-linecap="round" stroke-linejoin="round" stroke-width="1"/><text fill="#000" transform="translate(550.871 1355.0312) rotate(-90)"><tspan x="9.47" y="11" fill="#000" font-family="Helvetica" font-size="12">Eventloop</tspan></text></g><g id="Graphic_87"><rect width="18.5" height="109.75" x="586.621" y="1264" fill="url(#Obj_Gradient_6)"/><rect width="18.5" height="109.75" x="586.621" y="1264" stroke="#ef8e00" stroke-linecap="round" stroke-linejoin="round" stroke-width="1"/><text fill="#000" transform="translate(588.871 1355.0312) rotate(-90)"><tspan x="9.47" y="11" fill="#000" font-family="Helvetica" font-size="12">Eventloop</tspan></text></g><g id="Graphic_86"><rect width="18.5" height="109.75" x="662.621" y="1264" fill="url(#Obj_Gradient_7)"/><rect width="18.5" height="109.75" x="662.621" y="1264" stroke="#ef8e00" stroke-linecap="round" stroke-linejoin="round" stroke-width="1"/><text fill="#000" transform="translate(664.871 1355.0313) rotate(-90)"><tspan x="9.47" y="11" fill="#000" font-family="Helvetica" font-size="12">Eventloop</tspan></text></g><g id="Graphic_85"><text fill="#000" transform="translate(625.871 1309.651)"><tspan x="0" y="15" fill="#000" font-family="Helvetica Neue" font-size="16">…</tspan></text></g></g></g><g id="Graphic_91"><text fill="#000" transform="translate(713.736 1149.078)"><tspan x="0" y="15" fill="#000" font-family="Helvetica Neue" font-size="16">Writes using Netty event-loops</tspan></text></g><g id="Graphic_92"><text fill="#000" transform="translate(734.164 142.23834)"><tspan x="0" y="15" fill="#000" font-family="Helvetica Neue" font-size="16">Reads from Netty event-loops</tspan></text></g><g id="Graphic_99"><text fill="#000" transform="translate(-286.5 173.5)"><tspan x="0" y="27" fill="#000" font-family="Helvetica Neue" font-size="28">ServiceTalk</tspan> <tspan x="33.194" y="60.812" fill="#000" font-family="Helvetica Neue" font-size="28">(Read)</tspan></text></g><g id="Line_106"><line x1="901.5" x2="901.5" y1="965.446" y2="313.636" stroke="#000" stroke-linecap="round" stroke-linejoin="round" stroke-width="1" marker-end="url(#FilledArrow_Marker)"/></g><g id="Line_107"><line x1="201" x2="201" y1="289" y2="958.731" stroke="#000" stroke-linecap="round" stroke-linejoin="round" stroke-width="1" marker-end="url(#FilledArrow_Marker)"/></g><g id="Graphic_109"><text fill="#000" transform="translate(-286.5 1205)"><tspan x="0" y="27" fill="#000" font-family="Helvetica Neue" font-size="28">ServiceTalk</tspan> <tspan x="32.942" y="60.812" fill="#000" font-family="Helvetica Neue" font-size="28">(Write)</tspan></text></g><g id="Graphic_110"><text fill="#000" transform="translate(-286.5 600.7791)"><tspan x="0" y="27" fill="#000" font-family="Helvetica Neue" font-size="28">ServiceTalk</tspan> <tspan x="33.194" y="60.812" fill="#000" font-family="Helvetica Neue" font-size="28">(Read)</tspan></text></g><g id="Graphic_111"><path fill="url(#Obj_Gradient_8)" d="M 599.75 97.5 L 619.75 97.5 L 619.75 185 L 629.75 185 L 609.75 205 L 589.75 185 L 599.75 185 Z"/><path stroke="#ef8e00" stroke-linecap="round" stroke-linejoin="round" stroke-width="1" d="M 599.75 97.5 L 619.75 97.5 L 619.75 185 L 629.75 185 L 609.75 205 L 589.75 185 L 599.75 185 Z"/></g></g></g></svg>